<svg width="39" height="31" viewBox="0 0 39 31" fill="none" xmlns="http://www.w3.org/2000/svg">
<path d="M8 17C7.72386 17 7.5 17.2239 7.5 17.5V18.5C7.5 18.7761 7.72386 19 8 19H16C16.2761 19 16.5 18.7761 16.5 18.5V17.5C16.5 17.2239 16.2761 17 16 17H8Z" fill="#202020"/>
<path d="M20.839 26.6185C21.4975 26.283 22.033 25.7475 22.3685 25.089C22.75 24.3403 22.75 23.3602 22.75 21.4V14.6C22.75 12.6398 22.75 11.6597 22.3685 10.911C22.033 10.2525 21.4975 9.71703 20.839 9.38148C20.0903 9 19.1102 9 17.15 9H6.85C4.88982 9 3.90972 9 3.16103 9.38148C2.50247 9.71703 1.96703 10.2525 1.63148 10.911C1.25 11.6597 1.25 12.6398 1.25 14.6V21.4C1.25 23.3602 1.25 24.3403 1.63148 25.089C1.96703 25.7475 2.50247 26.283 3.16103 26.6185C3.90972 27 4.88982 27 6.85 27H8.39645C8.46275 27 8.52634 27.0263 8.57322 27.0732L10.9393 29.4393C11.5251 30.0251 12.4749 30.0251 13.0607 29.4393L15.4268 27.0732C15.4737 27.0263 15.5373 27 15.6036 27H17.15C19.1102 27 20.0903 27 20.839 26.6185ZM3.25 14.6C3.25 13.5869 3.25156 12.9474 3.29104 12.4641C3.32862 12.0041 3.39035 11.8644 3.41349 11.819C3.5573 11.5368 3.78677 11.3073 4.06901 11.1635C4.11442 11.1404 4.25412 11.0786 4.71407 11.041C5.19737 11.0016 5.83691 11 6.85 11H17.15C18.1631 11 18.8026 11.0016 19.2859 11.041C19.7459 11.0786 19.8856 11.1404 19.931 11.1635C20.2132 11.3073 20.4427 11.5368 20.5865 11.819C20.6096 11.8644 20.6714 12.0041 20.709 12.4641C20.7484 12.9474 20.75 13.5869 20.75 14.6V21.4C20.75 22.4131 20.7484 23.0526 20.709 23.5359C20.6714 23.9959 20.6096 24.1356 20.5865 24.181C20.4427 24.4632 20.2132 24.6927 19.931 24.8365C19.8856 24.8596 19.7459 24.9214 19.2859 24.959C18.8026 24.9984 18.1631 25 17.15 25H15.6036C15.0068 25 14.4345 25.2371 14.0126 25.659L12 27.6716L9.98744 25.659C9.56548 25.2371 8.99318 25 8.39645 25H6.85C5.83691 25 5.19737 24.9984 4.71407 24.959C4.25412 24.9214 4.11442 24.8596 4.06901 24.8365C3.78677 24.6927 3.5573 24.4632 3.41349 24.181C3.39035 24.1356 3.32862 23.9959 3.29104 23.5359C3.25156 23.0526 3.25 22.4131 3.25 21.4V14.6Z" fill="#202020"/>
<path d="M30 0.5C34.6944 0.5 38.5 4.30558 38.5 9C38.5 13.6944 34.6944 17.5 30 17.5H22C17.3056 17.5 13.5 13.6944 13.5 9C13.5 4.30558 17.3056 0.5 22 0.5H30Z" fill="#FE2C55"/>
<path d="M30 0.5C34.6944 0.5 38.5 4.30558 38.5 9C38.5 13.6944 34.6944 17.5 30 17.5H22C17.3056 17.5 13.5 13.6944 13.5 9C13.5 4.30558 17.3056 0.5 22 0.5H30Z" stroke="white"/>
<path d="M22.2228 10.948C23.1468 9.976 23.4348 9.592 23.7108 9.16H23.6508C23.1468 9.712 22.5828 10.048 21.7428 10.048C20.1588 10.048 19.0428 8.968 19.0428 7.3C19.0428 5.56 20.3868 4.348 22.1988 4.348C24.0228 4.348 25.3548 5.548 25.3548 7.348C25.3548 8.728 24.7788 9.892 23.4708 11.392L22.0068 13H20.2548L22.2228 10.948ZM20.4468 7.216C20.4468 8.248 21.1908 8.968 22.1988 8.968C23.2188 8.968 23.9628 8.248 23.9628 7.216C23.9628 6.172 23.2068 5.464 22.1868 5.464C21.1668 5.464 20.4468 6.172 20.4468 7.216ZM29.8484 10.948C30.7724 9.976 31.0604 9.592 31.3364 9.16H31.2764C30.7724 9.712 30.2084 10.048 29.3684 10.048C27.7844 10.048 26.6684 8.968 26.6684 7.3C26.6684 5.56 28.0124 4.348 29.8244 4.348C31.6484 4.348 32.9804 5.548 32.9804 7.348C32.9804 8.728 32.4044 9.892 31.0964 11.392L29.6324 13H27.8804L29.8484 10.948ZM28.0724 7.216C28.0724 8.248 28.8164 8.968 29.8244 8.968C30.8444 8.968 31.5884 8.248 31.5884 7.216C31.5884 6.172 30.8324 5.464 29.8124 5.464C28.7924 5.464 28.0724 6.172 28.0724 7.216Z" fill="white"/>
</svg>
