<svg width="24" height="24" viewBox="0 0 24 24" fill="none" xmlns="http://www.w3.org/2000/svg">
<path d="M9.49419 1.5C12.2604 1.5 14.4965 3.74 14.4965 6.5C14.4965 9.26 12.2604 11.5 9.49419 11.5C6.73293 11.5 4.49191 9.26 4.49191 6.5C4.49191 3.74 6.73293 1.5 9.49419 1.5ZM9.49419 3.5C7.83843 3.5 6.49282 4.845 6.49282 6.5C6.49282 8.155 7.83843 9.5 9.49419 9.5C11.1549 9.5 12.4956 8.155 12.4956 6.5C12.4956 4.845 11.1549 3.5 9.49419 3.5Z" fill="#202020"/>
<path d="M9.49419 13C10.9774 13 12.2978 13.2902 13.43 13.8231L11.895 15.3574C11.1811 15.1234 10.3794 15 9.49419 15C5.45235 15 3.1513 17.58 3.00123 21.5C2.99123 21.775 2.77113 22 2.491 22H1.49054C1.21542 22 0.990317 21.775 1.00032 21.5C1.1654 16.495 4.35185 13 9.49419 13Z" fill="#202020"/>
<path d="M17.8512 20.9393L15.911 19H22.4998C22.776 19 23 18.7761 23 18.5V17.5C23 17.2238 22.776 17 22.4998 17H15.911L17.8512 15.0606C18.0466 14.8654 18.0466 14.5488 17.8512 14.3535L17.1438 13.6464C16.9484 13.4511 16.6317 13.4511 16.4364 13.6464L12.7882 17.2928C12.3975 17.6834 12.3975 18.3165 12.7882 18.7071L16.4364 22.3535C16.6317 22.5488 16.9484 22.5488 17.1438 22.3535L17.8512 21.6464C18.0466 21.4511 18.0466 21.1346 17.8512 20.9393Z" fill="#202020"/>
</svg>
