<svg width="208" height="60" viewBox="0 0 208 60" fill="none" xmlns="http://www.w3.org/2000/svg">
<path d="M81.6292 39.4778C81.6292 35.5478 84.5273 32.4649 88.4333 32.1743C88.2328 32.1596 88.0305 32.1513 87.8263 32.1513C83.6177 32.1513 80.4161 35.3473 80.4161 39.4768C80.4161 43.6064 83.6177 46.8051 87.8263 46.8051C88.0305 46.8051 88.2328 46.7969 88.4333 46.7821C84.5282 46.4915 81.6292 43.4068 81.6292 39.4768V39.4778ZM32.0277 27.4699V26.6495C30.7751 26.5613 29.4635 26.1676 28.3102 25.4089C29.3716 26.5015 30.6941 27.1664 32.0277 27.4699ZM20.6452 20V38.3401C20.6452 40.7433 18.9153 42.2884 16.8119 42.2884C16.1138 42.2884 15.4516 42.1256 14.8758 41.8249C15.607 42.7565 16.7603 43.2918 18.0259 43.2918C20.1293 43.2918 21.8593 41.7467 21.8593 39.3416V21.0016H25.1933C25.1022 20.6824 25.0277 20.3486 24.9707 20H20.6462H20.6452ZM17.91 30.6623V29.7536C17.4888 29.6837 17.0675 29.6607 16.719 29.6607C11.9732 29.6607 8 33.4628 8 38.1773C8 41.2721 9.50926 43.9181 11.8021 45.4844C10.2046 43.9016 9.21403 41.6869 9.21403 39.1788C9.21403 34.4717 13.1753 30.6724 17.9109 30.6623H17.91Z" fill="#2DCCD3"/>
<path d="M90.2534 32.1526C90.0492 32.1526 89.8469 32.1609 89.6464 32.1756C93.5497 32.4662 96.4477 35.5509 96.4477 39.4791C96.4477 43.4072 93.5497 46.4937 89.6464 46.7844C89.8469 46.7991 90.0492 46.8074 90.2534 46.8074C94.4602 46.8074 97.6617 43.6095 97.6617 39.4791C97.6617 35.3486 94.4602 32.1535 90.2534 32.1535V32.1526ZM28.3092 25.4102C27.2837 24.3571 26.5011 22.9067 26.1828 21.002H25.1923C25.7579 23.0603 26.9223 24.4969 28.3092 25.4102ZM32.0267 30.9432C30.1008 30.9432 28.278 30.5762 26.6721 29.4965C28.5419 31.3635 30.8109 31.9466 33.2408 31.9466V27.6524C32.8407 27.6258 32.4314 27.566 32.0267 27.4712V30.9432ZM14.8749 41.8262C14.3589 41.175 14.0508 40.3326 14.0508 39.3429C14.0508 36.5672 16.2241 35.1003 19.1221 35.4047V30.7555C18.7009 30.6856 18.2797 30.6627 17.9292 30.6627H17.909V34.4004C15.011 34.0978 12.8377 35.5629 12.8377 38.3404C12.8377 39.9647 13.6691 41.1962 14.8749 41.8253V41.8262ZM25.4581 38.0388C25.4581 43.8955 20.9708 46.9987 16.741 46.9987C14.9098 46.9987 13.2092 46.4468 11.8011 45.4857C13.3821 47.052 15.5582 48.0002 17.955 48.0002C22.1848 48.0002 26.6721 44.8971 26.6721 39.0403V29.4974C26.2509 29.2132 25.8462 28.8812 25.4581 28.494V38.0388Z" fill="#F1204A"/>
<path d="M71.745 33.7281H66.5559L62.6278 37.9624V27.8354H58.2573V46.502H62.6278V43.0485L64.3578 41.2284L66.9992 46.4781H72.0945L67.5832 38.1942L71.7459 33.7262L71.745 33.7281ZM36.5233 31.9475H41.0585V46.5029H45.7095V31.9475H48.7648L50.3661 27.8364H36.5243V31.9475H36.5233ZM51.4182 46.5029H55.7887V33.7281H51.4182V46.5029ZM53.5915 27.6028C52.166 27.6028 51.1607 28.5832 51.1607 29.9361C51.1607 31.289 52.166 32.2694 53.5915 32.2694C55.0171 32.2694 56.0224 31.266 56.0224 29.9361C56.0224 28.6062 55.0171 27.6028 53.5915 27.6028ZM108.125 38.1961L112.287 33.7281H107.098L103.17 37.9624V27.8354H98.7995V46.502H103.17V43.0485L104.9 41.2284L107.541 46.4781H112.637L108.125 38.1942L108.125 38.1961ZM84.1539 27.8364H69.7326V31.9475H74.2669V46.5029H78.9179V31.9475H82.5517L84.1539 27.8364ZM89.6474 32.1756C89.4469 32.1609 89.2445 32.1526 89.0403 32.1526C88.8362 32.1526 88.6338 32.1609 88.4333 32.1756C84.5282 32.4662 81.6292 35.5491 81.6292 39.4791C81.6292 43.409 84.5273 46.4937 88.4333 46.7844C88.6338 46.7991 88.8362 46.8074 89.0403 46.8074C89.2445 46.8074 89.4469 46.7991 89.6474 46.7844C93.5507 46.4937 96.4487 43.4072 96.4487 39.4791C96.4487 35.5509 93.5507 32.4662 89.6474 32.1756ZM89.6474 42.7634C89.4533 42.7983 89.251 42.8149 89.0403 42.8149C88.8297 42.8149 88.6274 42.7983 88.4333 42.7634C86.8974 42.4976 85.8839 41.2182 85.8839 39.4781C85.8839 37.738 86.8974 36.4596 88.4333 36.1929C88.6274 36.158 88.8297 36.1414 89.0403 36.1414C89.251 36.1414 89.4533 36.158 89.6474 36.1929C91.1815 36.4587 92.195 37.738 92.195 39.4781C92.195 41.2182 91.1815 42.4966 89.6474 42.7634ZM25.1933 21.002H21.8593V39.342C21.8593 41.7471 20.1293 43.2922 18.0259 43.2922C16.7604 43.2922 15.607 42.756 14.8759 41.8253C13.6701 41.1971 12.8387 39.9647 12.8387 38.3404C12.8387 35.5629 15.012 34.0978 17.91 34.4004V30.6627C13.1744 30.6728 9.21313 34.473 9.21313 39.1792C9.21313 41.6873 10.2037 43.902 11.8012 45.4848C13.2093 46.445 14.9099 46.9977 16.7411 46.9977C20.9709 46.9977 25.4582 43.8946 25.4582 38.0379V28.493C25.8463 28.8802 26.251 29.2123 26.6722 29.4965C28.278 30.5762 30.1009 30.9432 32.0268 30.9432V27.4712C30.6932 27.1687 29.3697 26.5028 28.3093 25.4102C26.9224 24.4969 25.758 23.0612 25.1924 21.002H25.1933Z" fill="black"/>
</svg>
